<?xml version="1.0" encoding="UTF-8"?>
<svg id="Camada_2" xmlns="http://www.w3.org/2000/svg" viewBox="0 0 414.7 428.45">
  <defs>
    <style>
      .cls-1 {
        fill: none;
        stroke: #000;
        stroke-miterlimit: 10;
        stroke-width: 3.77px;
      }

      .cls-2 {
        fill: #aac7f2;
      }
    </style>
  </defs>
  <g id="Layer_1">
    <path d="M233.27,216.73l25.5,62.68,4.52,11.16c4.95,12.22,7.44,21.96,7.44,29.22,0,12.22-5.49,21.78-16.47,28.68-6.2,3.9-17.18,6.55-32.93,7.97v6.11h174.5v-6.11c-10.98-1.24-19.21-2.7-24.7-4.38-5.49-1.68-10.36-4.12-14.61-7.3-6.02-4.6-11.6-11.42-16.73-20.45-5.14-9.03-12.04-24.08-20.72-45.15L203.52,0h-15.14l-28.68,73.89,9.44,5.1,4.1-10.73,55.78,137.58"/>
    <path class="cls-2" d="M85.4,255.24L20.33,406.13h0c52.1,0,99.21-30.99,119.84-78.83l67.47-156.45h0c-53.55,2.4-101.02,35.18-122.24,84.39Z"/>
    <path class="cls-1" d="M67.93,226.37L2.86,377.26h0c52.1,0,99.21-30.99,119.84-78.83l67.47-156.45h0c-53.55,2.4-101.02,35.18-122.24,84.39Z"/>
    <g>
      <path d="M216.66,413.27c-3.81,0-6.99-.82-9.55-2.45-2.56-1.63-4.48-3.71-5.75-6.24-1.28-2.53-1.92-5.18-1.92-7.96s.64-5.44,1.92-8c1.28-2.56,3.2-4.64,5.75-6.24,2.56-1.6,5.74-2.41,9.55-2.41,2.72,0,4.84,1.25,6.36,3.75,0-5.93-.54-10.44-1.63-13.55-.98-2.72-1.91-4.08-2.77-4.08v-.57h17.14v30.76c0,4.73.52,8.52,1.55,11.34,1.03,2.83,1.99,4.24,2.86,4.24v.49h-17.14v-2.86c-1.52,2.5-3.65,3.75-6.36,3.75ZM216.66,412.38c1.41,0,2.6-.76,3.55-2.29.95-1.52,1.66-3.49,2.12-5.92.46-2.42.69-4.96.69-7.63s-.23-5.13-.69-7.55c-.46-2.42-1.17-4.39-2.12-5.92-.95-1.52-2.14-2.28-3.55-2.28s-2.58,1.65-3.35,4.94c-.76,3.29-1.14,6.9-1.14,10.81s.38,7.6,1.14,10.9c.76,3.29,1.88,4.94,3.35,4.94Z"/>
      <path d="M258.19,413.27c-3.26,0-6-.82-8.2-2.45-2.2-1.63-3.85-3.71-4.94-6.24-1.09-2.53-1.63-5.18-1.63-7.96s.54-5.44,1.63-8c1.09-2.56,2.73-4.64,4.94-6.24,2.2-1.6,4.94-2.41,8.2-2.41,3.75,0,7,1.05,9.75,3.14,2.75,2.09,4.12,4.64,4.12,7.63h-15.59c.16,1.85.53,3.6,1.1,5.26.57,1.66,1.41,3.02,2.53,4.08s2.57,1.59,4.37,1.59c2.07,0,4.6-.87,7.59-2.61l-.25,1.47c-.16.93-.49,2.09-.98,3.51-.49,1.42-1.24,2.83-2.24,4.24-1.01,1.42-2.35,2.6-4.04,3.55s-3.81,1.43-6.36,1.43ZM259.99,389.85c-.05-2.61-.26-4.77-.61-6.49-.35-1.71-.77-2.57-1.26-2.57-.44,0-.83.76-1.18,2.28-.35,1.52-.53,3.29-.53,5.3v1.47h3.59Z"/>
      <path d="M290.59,413.27c-2.56,0-4.98-.33-7.26-.98-2.29-.65-4.16-1.62-5.63-2.9-1.47-1.28-2.2-2.87-2.2-4.77,0-1.8.67-3.13,2-4,1.33-.87,2.79-1.31,4.37-1.31s3.03.44,4.37,1.31c1.33.87,2,2.2,2,4,0,2.77.48,4.76,1.43,5.96.95,1.2,1.94,1.79,2.98,1.79.98,0,1.84-.39,2.57-1.18.73-.79,1.1-1.84,1.1-3.14,0-1.79-.86-3.26-2.57-4.41s-3.74-2.23-6.08-3.26c-1.85-.87-3.66-1.82-5.43-2.86-1.77-1.03-3.24-2.27-4.41-3.71-1.17-1.44-1.75-3.25-1.75-5.43,0-1.9.71-3.48,2.12-4.73,1.41-1.25,3.22-2.19,5.43-2.81,2.2-.62,4.53-.94,6.98-.94s4.69.31,6.9.94c2.2.63,4.01,1.56,5.43,2.81,1.41,1.25,2.12,2.83,2.12,4.73s-.67,3.24-2,4.16c-1.33.93-2.79,1.39-4.37,1.39s-3.11-.46-4.45-1.39c-1.33-.92-2-2.31-2-4.16,0-2.72-.37-4.65-1.1-5.79-.73-1.14-1.51-1.71-2.33-1.71-.71,0-1.33.35-1.88,1.06-.54.71-.82,1.66-.82,2.86,0,1.74.46,3.18,1.39,4.32.92,1.14,2.09,2.11,3.51,2.9,1.41.79,2.95,1.54,4.61,2.24,1.66.71,3.25,1.5,4.77,2.37,1.52.87,2.77,1.93,3.75,3.18.98,1.25,1.47,2.86,1.47,4.82s-.73,3.5-2.2,4.77c-1.47,1.28-3.35,2.24-5.63,2.9-2.28.65-4.68.98-7.18.98Z"/>
      <path d="M330.57,412.38h-21.54v-.49c.87,0,1.8-1.37,2.77-4.12.98-2.75,1.52-6.46,1.63-11.14-.11-4.73-.65-8.46-1.63-11.18-.98-2.72-1.9-4.08-2.77-4.08v-.57h17.14v15.5c0,4.73.52,8.52,1.55,11.34,1.03,2.83,1.99,4.24,2.86,4.24v.49ZM319.8,378.51c-1.79,0-3.32-.62-4.57-1.88-1.25-1.25-1.88-2.77-1.88-4.57s.62-3.33,1.88-4.61c1.25-1.28,2.77-1.92,4.57-1.92s3.32.64,4.57,1.92c1.25,1.28,1.88,2.81,1.88,4.61s-.63,3.32-1.88,4.57c-1.25,1.25-2.77,1.88-4.57,1.88Z"/>
      <path d="M357.17,428.45c-1.2,0-2.12-.35-2.77-1.06-.65-.71-.98-1.5-.98-2.37,0-.93.41-1.81,1.22-2.65.82-.84,2.04-1.26,3.67-1.26,2.5,0,4.43-.12,5.79-.37,1.36-.25,2.04-.94,2.04-2.08s-.49-1.79-1.47-1.79c-1.03,0-2.2.26-3.51.78-1.31.52-2.77,1.13-4.41,1.84-2.23.98-4.56,1.92-6.98,2.82-2.42.9-4.69,1.35-6.81,1.35-2.72,0-5.01-.9-6.85-2.69-1.42-1.36-2.12-3.21-2.12-5.55,0-.54.05-1.09.16-1.63.82-4.08,2.99-6.72,6.53-7.92-1.85-1.41-3.22-3.14-4.12-5.18-.9-2.04-1.35-4.15-1.35-6.32,0-3.26.99-6.26,2.98-8.98,1.98-2.72,4.94-4.46,8.85-5.22.6-2.72,1.85-4.92,3.75-6.61,1.9-1.69,3.92-2.53,6.04-2.53,1.25,0,2.19.35,2.82,1.06.62.71.94,1.5.94,2.37,0,.93-.4,1.81-1.18,2.65-.79.84-2.03,1.26-3.71,1.26-2.45,0-4.26.1-5.43.29-1.17.19-1.92.67-2.24,1.43.6-.05,1.25-.08,1.96-.08,3.26,0,6,.69,8.2,2.08s3.85,3.18,4.94,5.39c1.09,2.2,1.63,4.5,1.63,6.9s-.54,4.69-1.63,6.9c-1.09,2.2-2.73,4-4.94,5.39-2.2,1.39-4.94,2.08-8.2,2.08-1.96,0-4.07.11-6.32.33-2.26.22-4.2.69-5.83,1.43-1.63.73-2.58,1.86-2.86,3.39v.33c0,.71.35,1.06,1.06,1.06.87,0,1.92-.22,3.14-.65,1.22-.44,2.6-.95,4.12-1.55,2.34-.98,4.81-1.9,7.43-2.77,2.61-.87,5.11-1.31,7.51-1.31,2.77,0,5.03.84,6.77,2.53,1.47,1.47,2.2,3.37,2.2,5.71,0,.54-.05,1.09-.16,1.63-.49,2.88-1.7,5.21-3.63,6.98-1.93,1.77-4.01,2.65-6.24,2.65ZM349.91,407.81c.65,0,1.15-1.4,1.51-4.2.35-2.8.53-5.92.53-9.34s-.18-6.46-.53-9.26c-.35-2.8-.86-4.2-1.51-4.2s-1.16,1.4-1.51,4.2c-.35,2.8-.53,5.89-.53,9.26s.18,6.54.53,9.34c.35,2.8.86,4.2,1.51,4.2Z"/>
      <path d="M414.7,412.38h-21.54v-.49c.87,0,1.82-1.41,2.86-4.24,1.03-2.83,1.55-6.61,1.55-11.34v-5.55c0-1.85-.52-3.24-1.55-4.16-1.03-.92-2.15-1.39-3.35-1.39s-2.39.46-3.43,1.39c-1.03.93-1.55,2.31-1.55,4.16v5.55c0,4.73.52,8.52,1.55,11.34,1.03,2.83,1.99,4.24,2.86,4.24v.49h-21.54v-.49c.87,0,1.8-1.37,2.77-4.12.98-2.75,1.52-6.46,1.63-11.14-.11-4.73-.65-8.46-1.63-11.18-.98-2.72-1.9-4.08-2.77-4.08v-.57h17.14v5.47c.98-2.12,2.47-3.7,4.49-4.73,2.01-1.03,4.13-1.55,6.37-1.55,1.96,0,3.83.4,5.63,1.18,1.8.79,3.26,1.99,4.41,3.59,1.14,1.61,1.71,3.6,1.71,6v5.55c0,4.73.52,8.52,1.55,11.34,1.03,2.83,1.99,4.24,2.86,4.24v.49Z"/>
    </g>
  </g>
</svg>