<?xml version="1.0" encoding="UTF-8"?>
<svg id="Camada_2" xmlns="http://www.w3.org/2000/svg" viewBox="0 0 813.45 229.22">
  <g id="Layer_1">
    <path d="M113.54,111.03l12.41,30.51,2.2,5.43c2.41,5.95,3.62,10.69,3.62,14.22,0,5.95-2.67,10.6-8.02,13.96-3.02,1.9-8.36,3.19-16.03,3.88v2.97h84.94v-2.97c-5.35-.6-9.35-1.31-12.02-2.13-2.67-.82-5.04-2-7.11-3.56-2.93-2.24-5.65-5.56-8.14-9.95-2.5-4.4-5.86-11.72-10.08-21.98L99.06,5.54h-7.37l-13.96,35.97,4.59,2.48,2-5.22,27.15,66.97"/>
    <path d="M16.32,188.34c-4.82,1.14-9.82,1.74-14.92,1.74H0l32.23-74.72c10.4-24.11,34.07-40.45,60.3-41.63l1.46-.07-7.45,17.27-2.28.65,6.88-15.94c-24.95,1.68-47.3,17.42-57.23,40.44h0L2.8,188.24c4.94-.11,9.78-.8,14.43-2.01l-.91,2.12Z"/>
    <g>
      <path d="M101.02,88.7c-4.97.22-9.84.99-14.53,2.24l-25.97,60.23c-8.18,18.96-24.74,32.53-44.26,37.17l-6.42,14.89h0c25.36,0,48.29-15.08,58.33-38.37l32.84-76.15h0Z"/>
      <path d="M58.84,150.44l25.38-58.85c-18.88,5.76-34.66,19.55-42.7,38.19l-24.34,56.44c18.38-4.8,33.9-17.79,41.66-35.78Z"/>
    </g>
    <g>
      <path d="M646.03,46.6c-3.2,0-5.87-.69-8.02-2.06-2.15-1.37-3.76-3.12-4.83-5.24-1.08-2.12-1.61-4.35-1.61-6.68s.54-4.57,1.61-6.72c1.07-2.15,2.68-3.9,4.83-5.24,2.15-1.35,4.82-2.02,8.02-2.02,2.28,0,4.07,1.05,5.35,3.15,0-4.98-.46-8.78-1.37-11.38-.82-2.29-1.6-3.43-2.33-3.43v-.48h14.4v25.84c0,3.98.43,7.15,1.3,9.53.87,2.38,1.67,3.56,2.4,3.56v.41h-14.4v-2.4c-1.28,2.1-3.06,3.15-5.35,3.15ZM646.03,45.84c1.19,0,2.18-.64,2.98-1.92.8-1.28,1.39-2.94,1.78-4.97.39-2.03.58-4.17.58-6.41s-.19-4.31-.58-6.34c-.39-2.03-.98-3.69-1.78-4.97-.8-1.28-1.79-1.92-2.98-1.92s-2.17,1.38-2.81,4.15c-.64,2.77-.96,5.79-.96,9.08s.32,6.39.96,9.15c.64,2.77,1.58,4.15,2.81,4.15Z"/>
      <path d="M680.92,46.6c-2.74,0-5.04-.69-6.89-2.06s-3.23-3.12-4.15-5.24c-.92-2.12-1.37-4.35-1.37-6.68s.46-4.57,1.37-6.72c.91-2.15,2.3-3.9,4.15-5.24,1.85-1.35,4.15-2.02,6.89-2.02,3.15,0,5.88.88,8.19,2.64,2.31,1.76,3.46,3.9,3.46,6.41h-13.09c.14,1.55.45,3.03.92,4.42.48,1.39,1.19,2.54,2.12,3.43.94.89,2.16,1.34,3.67,1.34,1.74,0,3.86-.73,6.38-2.19l-.21,1.23c-.14.78-.41,1.76-.82,2.95-.41,1.19-1.04,2.38-1.88,3.56-.85,1.19-1.98,2.18-3.39,2.98-1.42.8-3.2,1.2-5.35,1.2ZM682.43,26.92c-.05-2.19-.22-4.01-.51-5.45-.3-1.44-.65-2.16-1.06-2.16-.37,0-.7.64-.99,1.92-.3,1.28-.45,2.77-.45,4.46v1.23h3.02Z"/>
      <path d="M708.14,46.6c-2.15,0-4.18-.27-6.1-.82-1.92-.55-3.5-1.36-4.73-2.43-1.23-1.07-1.85-2.41-1.85-4.01,0-1.51.56-2.63,1.68-3.36,1.12-.73,2.34-1.1,3.67-1.1s2.55.37,3.67,1.1c1.12.73,1.68,1.85,1.68,3.36,0,2.33.4,4,1.2,5,.8,1.01,1.63,1.51,2.5,1.51.82,0,1.54-.33,2.16-.99.62-.66.92-1.54.92-2.64,0-1.51-.72-2.74-2.16-3.7s-3.14-1.87-5.11-2.74c-1.55-.73-3.07-1.53-4.56-2.4-1.49-.87-2.72-1.91-3.7-3.12-.98-1.21-1.47-2.73-1.47-4.56,0-1.6.59-2.92,1.78-3.98,1.19-1.05,2.71-1.84,4.56-2.37,1.85-.52,3.8-.79,5.86-.79s3.94.26,5.79.79c1.85.53,3.37,1.31,4.56,2.37,1.19,1.05,1.78,2.38,1.78,3.98s-.56,2.72-1.68,3.5c-1.12.78-2.34,1.17-3.67,1.17s-2.62-.39-3.74-1.17c-1.12-.78-1.68-1.94-1.68-3.5,0-2.29-.31-3.91-.93-4.87s-1.27-1.44-1.95-1.44c-.59,0-1.12.3-1.58.89-.46.59-.69,1.39-.69,2.4,0,1.46.39,2.67,1.17,3.63.78.96,1.76,1.77,2.95,2.43,1.19.66,2.48,1.29,3.87,1.88,1.39.59,2.73,1.26,4.01,1.99,1.28.73,2.33,1.62,3.15,2.67.82,1.05,1.23,2.4,1.23,4.04s-.62,2.94-1.85,4.01c-1.23,1.07-2.81,1.88-4.73,2.43-1.92.55-3.93.82-6.03.82Z"/>
      <path d="M741.73,45.84h-18.1v-.41c.73,0,1.51-1.15,2.33-3.46.82-2.31,1.28-5.43,1.37-9.36-.09-3.98-.55-7.11-1.37-9.39-.82-2.29-1.6-3.43-2.33-3.43v-.48h14.4v13.03c0,3.98.43,7.15,1.3,9.53s1.67,3.56,2.4,3.56v.41ZM732.68,17.39c-1.51,0-2.79-.53-3.84-1.58-1.05-1.05-1.58-2.33-1.58-3.84s.53-2.8,1.58-3.87c1.05-1.07,2.33-1.61,3.84-1.61s2.79.54,3.84,1.61c1.05,1.07,1.58,2.37,1.58,3.87s-.53,2.79-1.58,3.84-2.33,1.58-3.84,1.58Z"/>
      <path d="M764.08,59.35c-1.01,0-1.78-.3-2.33-.89-.55-.59-.82-1.26-.82-1.99,0-.78.34-1.52,1.03-2.23.69-.71,1.71-1.06,3.08-1.06,2.1,0,3.72-.1,4.87-.31,1.14-.21,1.71-.79,1.71-1.75s-.41-1.51-1.23-1.51c-.87,0-1.85.22-2.95.65-1.1.43-2.33.95-3.7,1.54-1.87.82-3.83,1.61-5.86,2.37-2.03.75-3.94,1.13-5.72,1.13-2.29,0-4.21-.75-5.76-2.26-1.19-1.14-1.78-2.7-1.78-4.66,0-.46.04-.91.14-1.37.69-3.43,2.51-5.64,5.48-6.65-1.55-1.19-2.71-2.64-3.46-4.35s-1.13-3.48-1.13-5.31c0-2.74.83-5.25,2.5-7.54,1.67-2.28,4.15-3.75,7.44-4.39.5-2.29,1.55-4.14,3.15-5.55,1.6-1.42,3.29-2.12,5.07-2.12,1.05,0,1.84.3,2.37.89.53.59.79,1.26.79,1.99,0,.78-.33,1.52-.99,2.23-.66.71-1.7,1.06-3.12,1.06-2.06,0-3.58.08-4.56.24-.98.16-1.61.56-1.88,1.2.5-.04,1.05-.07,1.65-.07,2.74,0,5.04.58,6.89,1.75,1.85,1.17,3.23,2.67,4.15,4.53.91,1.85,1.37,3.78,1.37,5.79s-.46,3.94-1.37,5.79c-.92,1.85-2.3,3.36-4.15,4.52-1.85,1.17-4.15,1.75-6.89,1.75-1.65,0-3.42.09-5.31.27s-3.53.58-4.9,1.2c-1.37.62-2.17,1.57-2.4,2.85v.27c0,.59.3.89.89.89.73,0,1.61-.18,2.64-.55,1.03-.37,2.18-.8,3.46-1.3,1.96-.82,4.04-1.6,6.24-2.33,2.19-.73,4.29-1.1,6.31-1.1,2.33,0,4.23.71,5.69,2.12,1.23,1.23,1.85,2.83,1.85,4.8,0,.46-.05.91-.14,1.37-.41,2.42-1.43,4.38-3.05,5.86-1.62,1.48-3.37,2.23-5.24,2.23ZM757.98,42c.55,0,.97-1.18,1.27-3.53.3-2.35.45-4.97.45-7.85s-.15-5.43-.45-7.78c-.3-2.35-.72-3.53-1.27-3.53s-.97,1.18-1.27,3.53c-.3,2.35-.45,4.95-.45,7.78s.15,5.5.45,7.85c.3,2.35.72,3.53,1.27,3.53Z"/>
      <path d="M812.41,45.84h-18.1v-.41c.73,0,1.53-1.19,2.4-3.56.87-2.38,1.3-5.55,1.3-9.53v-4.66c0-1.55-.43-2.72-1.3-3.5-.87-.78-1.81-1.17-2.81-1.17s-2.01.39-2.88,1.17c-.87.78-1.3,1.94-1.3,3.5v4.66c0,3.98.43,7.15,1.3,9.53s1.67,3.56,2.4,3.56v.41h-18.1v-.41c.73,0,1.51-1.15,2.33-3.46.82-2.31,1.28-5.43,1.37-9.36-.09-3.98-.55-7.11-1.37-9.39-.82-2.29-1.6-3.43-2.33-3.43v-.48h14.4v4.59c.82-1.78,2.08-3.11,3.77-3.98,1.69-.87,3.47-1.3,5.35-1.3,1.65,0,3.22.33,4.73.99,1.51.66,2.74,1.67,3.7,3.02.96,1.35,1.44,3.03,1.44,5.04v4.66c0,3.98.43,7.15,1.3,9.53s1.67,3.56,2.4,3.56v.41Z"/>
    </g>
    <g>
      <path d="M436.25,178.91c-3.91.51-7.9-.23-11.57-1.66s-7.04-3.53-10.25-5.81c-16.83-11.95-30.08-28.99-37.91-48.25-6.73-16.55-6.53-42.25-28.02-47.09-10.98-2.48-23.27,2.8-29.03,12.47-3.86,6.47-4.83,14.23-5.36,21.75-1.15,16.26-.62,32.58-.1,48.87.15,4.51.39,9.33,3.06,12.96,3.36,4.57,9.48,5.93,15.06,6.95-.01.92-.03,1.84-.04,2.76-19.07,0-38.13,0-57.2,0-.01-.91-.03-1.81-.04-2.72,5.27-.71,11.03-1.67,14.53-5.68,3.12-3.58,3.61-8.68,3.9-13.42,1.17-18.97,1.44-38.02.08-56.98-.47-6.47-1.25-13.28-5.07-18.52-4.23-5.82-11.71-8.72-18.91-8.58-8.79.17-17.4,4.65-22.59,11.74-6.72,9.19-7.38,21.35-7.54,32.73-.18,12.86-.04,25.73.4,38.59.16,4.6.47,9.51,3.24,13.18,3.38,4.49,9.42,5.85,14.94,6.91-.01.91-.03,1.83-.04,2.74-19.07,0-38.13,0-57.2,0l-.06-2.65c4.75-.62,9.75-1.55,13.32-4.74,5.3-4.75,5.71-12.76,5.73-19.87.06-16.85.12-33.7.18-50.55.02-6.19-.01-12.63-2.71-18.19-2.7-5.57-8.92-9.95-14.93-8.44-.03-1.04-.07-2.07-.1-3.11,11.85-1.48,23.7-2.97,35.55-4.45,1.03,5.94,2.05,11.89,3.08,17.83,9.79-9.88,22.76-17.23,36.65-17.79s28.47,6.69,34.22,19.35c12.43-13.76,31.68-21.68,49.98-18.66,6.9,1.14,13.82,3.94,18.34,9.28,3.4,4.01,5.2,9.13,6.58,14.2,6.07,22.29,7.29,46.47,23.74,64.38,5.53,6.02,12.64,8.66,19,13.5"/>
      <path d="M420.03,111.44c-.35,4.23-.52,7.29-.52,9.19,0,7.51,1.1,14.84,3.29,22,2.19,7.16,5.18,13.12,8.96,17.86,3.87,4.83,8.66,8.63,14.38,11.39,5.72,2.76,11.72,4.14,18,4.14,4.64,0,9.05-.78,13.22-2.33,4.17-1.55,7.63-3.71,10.38-6.47,3.1-3.02,5.76-7.85,8-14.5l2.72.91c-2.24,10.1-7.05,17.71-14.43,22.84-7.38,5.13-17.19,7.7-29.45,7.7-10.61,0-19.72-1.68-27.31-5.05-7.59-3.37-14.02-8.54-19.29-15.53-7.33-9.75-11-21.74-11-35.98,0-19.42,6.94-34.64,20.84-45.69,10.1-8.02,21.61-12.04,34.56-12.04,6.9,0,13.29,1.23,19.16,3.69,5.87,2.46,10.83,6.02,14.88,10.68,6.3,7.25,9.45,16.31,9.45,27.18h-75.85ZM476.46,106.39c-.6-8.63-2.19-15.27-4.77-19.93-2.32-4.23-5.41-7.57-9.28-10.03-3.87-2.46-7.99-3.69-12.37-3.69-7.39,0-13.85,3.19-19.39,9.58-5.54,6.39-8.83,14.41-9.86,24.07h55.66Z"/>
      <path d="M528.58,71.83h32.88v4.92h-32.88v75.33c0,9.06,1.55,15.53,4.65,19.41,1.63,2.16,3.78,3.84,6.45,5.05,2.67,1.21,5.55,1.81,8.64,1.81,3.87,0,7.1-.8,9.68-2.39,2.58-1.6,5.42-4.51,8.51-8.74l1.94,1.68c-2.85,5.18-6.84,9.02-11.97,11.52-5.13,2.5-11.54,3.75-19.22,3.75-10.18,0-17.6-1.99-22.26-5.95-2.5-2.07-4.14-4.55-4.92-7.44-.78-2.89-1.17-8.09-1.17-15.6v-78.43h-13.85v-2.07c5.61-1.81,10.79-5.31,15.54-10.48,2.86-3.19,5.17-6.36,6.9-9.51,1.74-3.15,3.39-7.23,4.95-12.23l1.3-4.27h4.82v33.65Z"/>
      <path d="M602.48,0v88.64c3.02-3.71,5.7-6.59,8.03-8.66,2.33-2.07,5.13-3.88,8.41-5.43,6.3-3.1,13.46-4.66,21.49-4.66,10.18,0,18.59,2.03,25.24,6.08,4.74,3.02,8,6.7,9.77,11.05,1.77,4.35,2.65,10.88,2.65,19.58v37.75l.13,9.83c0,5.86.34,10.15,1.04,12.86.69,2.72,2.03,4.98,4.01,6.79,2.42,2.33,6.86,4.1,13.33,5.3v2.72h-57.16v-2.72c4.56-.6,7.81-1.33,9.75-2.2s3.68-2.33,5.23-4.4c1.55-2.15,2.62-5.08,3.23-8.79.6-3.71.9-9.18.9-16.42v-40.98c0-6.21-.47-11.12-1.42-14.74-.95-3.62-2.54-6.76-4.78-9.44-4.39-5.08-10.59-7.63-18.6-7.63-20.83,0-31.25,16.46-31.25,49.38v20.68l.13,9.57c0,5.86.34,10.15,1.03,12.86.69,2.71,2.02,4.98,4,6.79,2.41,2.33,6.84,4.1,13.3,5.3v2.72h-57.17v-2.72c5.18-.69,8.89-1.66,11.13-2.91,2.24-1.25,4.06-3.38,5.44-6.4.95-1.98,1.62-4.98,2.01-8.98.39-4.01.58-9.8.58-17.38V42.01c0-8.79-.22-14.99-.65-18.61-.43-3.62-1.38-6.55-2.85-8.79-1.47-2.41-3.24-4.14-5.31-5.17-2.07-1.03-5.05-1.68-8.93-1.94v-2.85l37.28-4.66Z"/>
      <path d="M698.78,71.83h50.22v2.85c-3.54.52-6.08,1.21-7.64,2.07-3.36,1.9-5.05,4.83-5.05,8.79,0,3.45,1.76,9.61,5.28,18.48l21.64,55.44,18.9-46.65c4.66-11.63,6.99-19.86,6.99-24.68,0-3.88-1.08-6.96-3.24-9.24-2.16-2.28-5.31-3.68-9.45-4.2v-2.85h37.02v2.85c-3.71,1.04-6.45,2.12-8.22,3.24-1.77,1.12-3.47,2.89-5.11,5.31-2.5,3.8-6.47,12.3-11.91,25.5l-37.53,91.12c-4.49,10.87-8.11,17.95-10.87,21.23-4.66,5.44-10.57,8.15-17.73,8.15-4.58,0-8.26-.89-11.07-2.65-2.8-1.77-4.21-4.08-4.21-6.92,0-2.24.82-4.03,2.45-5.37,1.63-1.34,3.79-2.01,6.45-2.01,2.24,0,4.82.6,7.74,1.81,2.84,1.12,4.67,1.81,5.48,2.07s1.79.39,2.9.39c5.33,0,9.68-4.03,13.03-12.08l4-9.88c1.72-4.16,2.58-7.36,2.58-9.62,0-3.19-1.63-8.75-4.9-16.68l-26.82-64.51-3.87-9.31c-2.33-5.52-4.14-9.44-5.44-11.77-1.29-2.33-2.59-4.01-3.88-5.04-2.16-1.64-4.75-2.63-7.77-2.97v-2.85Z"/>
    </g>
  </g>
</svg>